<svg xmlns="http://www.w3.org/2000/svg" width="256" height="256"><path d="M246.9 78c3.2-3 13.1-12.1 7.4-23-2-3.8-5.3-6.6-9-7.8-3.2-1-6.7-.7-9.7.9-11.5 6.1-21.1 18.2-29.6 28.8l-2.6 3.2c-11.9 14.8-22.4 28.6-32.1 42.2-1.4 2-2.9 4-4.3 6.1-10.1 14.2-20.5 28.9-32.6 41.2-3.1 3.2-6.1 4.8-6.8 4.5-.1-.2-.2-.6 0-1.7.8-4.3 3.1-8.4 5.4-12.4.5-1 1.1-1.9 1.6-2.9 1.9-3.5 3.9-7 5.8-10.4 3.1-5.3 6.2-10.9 9-16.5 1.5-3 3.1-6.1 4.7-9.1 5.8-10.9 11.8-22.2 13.9-35.1 1-6.4-.5-12.7-4.2-16.9-4.9-5.6-12-6.3-20.9-2.1-4.5 2.1-9 5-13.2 8.6-11.9 9.9-22.6 21.6-32.9 32.8-3.7 4-7.5 8.2-11.3 12.1-16.2 17-32.2 33.2-49.9 51.1-2.1 2.2-4.3 2.6-5.3 2-.8-.6-1.1-2.4.2-5.3 7.7-16.9 18.2-33.6 32.3-51.2 4.6-5.8 9.4-10.7 14.5-15.9 1.4-1.4 2.8-2.9 4.2-4.4.8-.8 1.6-1.6 2.3-2.4 5.6-5.7 11.4-11.6 13.1-20 1.5-7.6-3.2-15.6-10.6-18-9.5-3-16.7 6-19.8 9.8C48 89.6 24.7 120.4 8 155.4c-2.6 5.6-5.2 11.6-6.3 18-1.7 10.1.9 23.3 10.7 30 .4.3.9.6 1.3.8 3.6 2.1 7.3 3.2 11.2 3.2 4.4 0 8.9-1.4 13.4-4.1 13.5-8.3 21.6-17.5 31-28.1 2.4-2.7 4.9-5.6 7.6-8.5 6-6.5 11.3-12.5 16.4-18.3 10.2-11.6 19.8-22.5 32.9-34.9l.2-.2c-.3 1.4-1.1 4.2-3.6 9.5l-.2.4c-2.5 5.4-5.3 10.7-8.1 15.8-7.3 13.5-14.8 27.4-16.1 43.8-.7 8.7 2.5 16.2 8.5 20.6 6.1 4.4 14.1 5.1 22.2 1.8 20.7-8.5 34.3-26.8 47.4-44.6 2.3-3.1 4.5-6.1 6.8-9.1 18-23.6 39.2-50.7 63.6-73.5z" fill="#010101"/></svg>