<svg xmlns="http://www.w3.org/2000/svg" width="1800" height="800" display="block"><path stroke-linejoin="round" stroke-miterlimit="1" fill="#036e8c" stroke="#036e8c" d="M542-81H64l262 1z"/><path stroke-linejoin="round" stroke-miterlimit="1" fill="#037897" stroke="#037897" d="M901 879l-263-22-467 22z"/><path stroke-linejoin="round" stroke-miterlimit="1" fill="#0485a6" stroke="#0485a6" d="M1134 873l-101-4-132 10z"/><path stroke-linejoin="round" stroke-miterlimit="1" fill="#048bad" stroke="#048bad" d="M1448 879l-314-6-233 6z"/><path stroke-linejoin="round" stroke-miterlimit="1" fill="#0491b3" stroke="#0491b3" d="M1448 879l-140-10-174 4z"/><path stroke-linejoin="round" stroke-miterlimit="1" fill="#0485a6" stroke="#0485a6" d="M1963-81h-271l64 19z"/><path stroke-linejoin="round" stroke-miterlimit="1" fill="#049abd" stroke="#049abd" d="M1981 399l-62-136-30 173z"/><path stroke-linejoin="round" stroke-miterlimit="1" fill="#0496b8" stroke="#0496b8" d="M1981 399l-44-192-18 56z"/><path stroke-linejoin="round" stroke-miterlimit="1" fill="#048eb0" stroke="#048eb0" d="M1981 94l-159 9 115 104z"/><path stroke-linejoin="round" stroke-miterlimit="1" fill="#048cad" stroke="#048cad" d="M1981 94l-139-40-20 49z"/><path stroke-linejoin="round" stroke-miterlimit="1" fill="#0489ab" stroke="#0489ab" d="M1981 94l-18-175-121 135z"/><path stroke-linejoin="round" stroke-miterlimit="1" fill="#0493b5" stroke="#0493b5" d="M1981 94l-44 113 44 192z"/><path stroke-linejoin="round" stroke-miterlimit="1" fill="#04acd0" stroke="#04acd0" d="M1981 788l-93 42 29 49z"/><path stroke-linejoin="round" stroke-miterlimit="1" fill="#04abd0" stroke="#04abd0" d="M1981 788l-101-55 8 97z"/><path stroke-linejoin="round" stroke-miterlimit="1" fill="#0488a9" stroke="#0488a9" d="M1981-81h-18l18 175z"/><path stroke-linejoin="round" stroke-miterlimit="1" fill="#04abcf" stroke="#04abcf" d="M1981 761l-101-28 101 55z"/><path stroke-linejoin="round" stroke-miterlimit="1" fill="#04aace" stroke="#04aace" d="M1981 761l-44-52-57 24z"/><path stroke-linejoin="round" stroke-miterlimit="1" fill="#049ec1" stroke="#049ec1" d="M1981 500V399l-92 37z"/><path stroke-linejoin="round" stroke-miterlimit="1" fill="#049fc3" stroke="#049fc3" d="M1981 500l-92-64 12 52z"/><path stroke-linejoin="round" stroke-miterlimit="1" fill="#04aace" stroke="#04aace" d="M1981 662l-44 47 44 52z"/><path stroke-linejoin="round" stroke-miterlimit="1" fill="#04a2c6" stroke="#04a2c6" d="M1981 592v-92l-80-12z"/><path stroke-linejoin="round" stroke-miterlimit="1" fill="#04a3c7" stroke="#04a3c7" d="M1981 592l-80-104-83 115z"/><path stroke-linejoin="round" stroke-miterlimit="1" fill="#04a9cd" stroke="#04a9cd" d="M1981 657l-44 52 44-47z"/><path stroke-linejoin="round" stroke-miterlimit="1" fill="#04a8cc" stroke="#04a8cc" d="M1981 657l-163-54 119 106z"/><path stroke-linejoin="round" stroke-miterlimit="1" fill="#04a6ca" stroke="#04a6ca" d="M1981 657v-65l-163 11z"/><path stroke-linejoin="round" stroke-miterlimit="1" fill="#04acd1" stroke="#04acd1" d="M1981 879v-91l-64 91z"/><path stroke-linejoin="round" stroke-miterlimit="1" fill="#036c8b" stroke="#036c8b" d="M326-80L64-81l150 5z"/><path stroke-linejoin="round" stroke-miterlimit="1" fill="#0493b5" stroke="#0493b5" d="M1937 207l-26 17 8 39z"/><path stroke-linejoin="round" stroke-miterlimit="1" fill="#0488aa" stroke="#0488aa" d="M1963-81L1813 35l29 19z"/><path stroke-linejoin="round" stroke-miterlimit="1" fill="#0487a8" stroke="#0487a8" d="M1963-81l-207 19 57 97z"/><path stroke-linejoin="round" stroke-miterlimit="1" fill="#04aacf" stroke="#04aacf" d="M1888 830l-8-97-33 31z"/><path stroke-linejoin="round" stroke-miterlimit="1" fill="#049abc" stroke="#049abc" d="M1889 436l-10-199-95 214z"/><path stroke-linejoin="round" stroke-miterlimit="1" fill="#0491b2" stroke="#0491b2" d="M1911 224l-89-121 57 134z"/><path stroke-linejoin="round" stroke-miterlimit="1" fill="#0497b9" stroke="#0497b9" d="M1919 263l-40-26 10 199z"/><path stroke-linejoin="round" stroke-miterlimit="1" fill="#0490b2" stroke="#0490b2" d="M1937 207l-115-104 89 121z"/><path stroke-linejoin="round" stroke-miterlimit="1" fill="#04a8cc" stroke="#04a8cc" d="M1937 709l-119-106 62 130z"/><path stroke-linejoin="round" stroke-miterlimit="1" fill="#04a9ce" stroke="#04a9ce" d="M1880 733l-24 14-9 17z"/><path stroke-linejoin="round" stroke-miterlimit="1" fill="#049ec2" stroke="#049ec2" d="M1901 488l-12-52-18 24z"/><path stroke-linejoin="round" stroke-miterlimit="1" fill="#04aace" stroke="#04aace" d="M1917 879l-135-11-8 11z"/><path stroke-linejoin="round" stroke-miterlimit="1" fill="#0493b6" stroke="#0493b6" d="M1919 263l-8-39-32 13z"/><path stroke-linejoin="round" stroke-miterlimit="1" fill="#04abcf" stroke="#04abcf" d="M1917 879l-29-49-106 38z"/><path stroke-linejoin="round" stroke-miterlimit="1" fill="#0498bb" stroke="#0498bb" d="M1879 237l-175 178 80 36z"/><path stroke-linejoin="round" stroke-miterlimit="1" fill="#04aace" stroke="#04aace" d="M1888 830l-74-5-32 43z"/><path stroke-linejoin="round" stroke-miterlimit="1" fill="#04a1c4" stroke="#04a1c4" d="M1901 488l-91-22 8 137z"/><path stroke-linejoin="round" stroke-miterlimit="1" fill="#0495b8" stroke="#0495b8" d="M1879 237l-228 80 53 98z"/><path stroke-linejoin="round" stroke-miterlimit="1" fill="#04a8cc" stroke="#04a8cc" d="M1880 733l-62-130 38 144z"/><path stroke-linejoin="round" stroke-miterlimit="1" fill="#049fc2" stroke="#049fc2" d="M1901 488l-30-28-61 6z"/><path stroke-linejoin="round" stroke-miterlimit="1" fill="#0492b4" stroke="#0492b4" d="M1879 237l-150-52-78 132z"/><path stroke-linejoin="round" stroke-miterlimit="1" fill="#048fb1" stroke="#048fb1" d="M1879 237l-57-134-93 82z"/><path stroke-linejoin="round" stroke-miterlimit="1" fill="#04aacf" stroke="#04aacf" d="M1888 830l-41-66-33 61z"/><path stroke-linejoin="round" stroke-miterlimit="1" fill="#049ec1" stroke="#049ec1" d="M1889 436l-79 30 61-6z"/><path stroke-linejoin="round" stroke-miterlimit="1" fill="#049dc0" stroke="#049dc0" d="M1889 436l-105 15 26 15z"/><path stroke-linejoin="round" stroke-miterlimit="1" fill="#04a0c3" stroke="#04a0c3" d="M1818 603l-8-137-68 46z"/><path stroke-linejoin="round" stroke-miterlimit="1" fill="#04a7cb" stroke="#04a7cb" d="M1856 747l-38-144-48 180z"/><path stroke-linejoin="round" stroke-miterlimit="1" fill="#049dc1" stroke="#049dc1" d="M1810 466l-39 6-29 40z"/><path stroke-linejoin="round" stroke-miterlimit="1" fill="#04a9cd" stroke="#04a9cd" d="M1814 825l-31 31-1 12z"/><path stroke-linejoin="round" stroke-miterlimit="1" fill="#04a5c8" stroke="#04a5c8" d="M1818 603l-147 45 99 135z"/><path stroke-linejoin="round" stroke-miterlimit="1" fill="#048daf" stroke="#048daf" d="M1822 103l-94 47 1 35z"/><path stroke-linejoin="round" stroke-miterlimit="1" fill="#04a9cd" stroke="#04a9cd" d="M1856 747l-86 36 77-19zm-9 17l-77 19 44 42z"/><path stroke-linejoin="round" stroke-miterlimit="1" fill="#04a0c3" stroke="#04a0c3" d="M1818 603l-76-91-15 23z"/><path stroke-linejoin="round" stroke-miterlimit="1" fill="#048bac" stroke="#048bac" d="M1842 54l-29-19 9 68z"/><path stroke-linejoin="round" stroke-miterlimit="1" fill="#0488a9" stroke="#0488a9" d="M1813 35l-57-97 21 107z"/><path stroke-linejoin="round" stroke-miterlimit="1" fill="#048aac" stroke="#048aac" d="M1822 103l-45-58-17 10z"/><path stroke-linejoin="round" stroke-miterlimit="1" fill="#048cad" stroke="#048cad" d="M1822 103l-62-48-32 95z"/><path stroke-linejoin="round" stroke-miterlimit="1" fill="#048aac" stroke="#048aac" d="M1822 103l-9-68-36 10z"/><path stroke-linejoin="round" stroke-miterlimit="1" fill="#04a4c7" stroke="#04a4c7" d="M1770 783l-99-135-19 78z"/><path stroke-linejoin="round" stroke-miterlimit="1" fill="#04a1c5" stroke="#04a1c5" d="M1818 603l-91-68-56 113z"/><path stroke-linejoin="round" stroke-miterlimit="1" fill="#04a9cd" stroke="#04a9cd" d="M1814 825l-44-42 13 73z"/><path stroke-linejoin="round" stroke-miterlimit="1" fill="#049dc0" stroke="#049dc0" d="M1810 466l-26-15-13 21z"/><path stroke-linejoin="round" stroke-miterlimit="1" fill="#0496b9" stroke="#0496b9" d="M1704 415l-53-98 34 92z"/><path stroke-linejoin="round" stroke-miterlimit="1" fill="#0491b3" stroke="#0491b3" d="M1729 185l-97 92 19 40z"/><path stroke-linejoin="round" stroke-miterlimit="1" fill="#0488a9" stroke="#0488a9" d="M1760 55l-4-117-103 112zm17-10l-21-107 4 117z"/><path stroke-linejoin="round" stroke-miterlimit="1" fill="#04a8cc" stroke="#04a8cc" d="M1783 856l-13-73-74 96z"/><path stroke-linejoin="round" stroke-miterlimit="1" fill="#049bbe" stroke="#049bbe" d="M1784 451l-80-36 67 57z"/><path stroke-linejoin="round" stroke-miterlimit="1" fill="#04a9cd" stroke="#04a9cd" d="M1783 856l-9 23 8-11z"/><path stroke-linejoin="round" stroke-miterlimit="1" fill="#04a8cc" stroke="#04a8cc" d="M1783 856l-87 23h78z"/><path stroke-linejoin="round" stroke-miterlimit="1" fill="#0486a7" stroke="#0486a7" d="M1756-62l-64-19-39 131z"/><path stroke-linejoin="round" stroke-miterlimit="1" fill="#049cbf" stroke="#049cbf" d="M1771 472l-67-57 38 97z"/><path stroke-linejoin="round" stroke-miterlimit="1" fill="#048aac" stroke="#048aac" d="M1760 55l-107-5 75 100z"/><path stroke-linejoin="round" stroke-miterlimit="1" fill="#04a5c9" stroke="#04a5c9" d="M1770 783l-118-57 44 153z"/><path stroke-linejoin="round" stroke-miterlimit="1" fill="#048fb1" stroke="#048fb1" d="M1729 185l-98 27 1 65z"/><path stroke-linejoin="round" stroke-miterlimit="1" fill="#037493" stroke="#037493" d="M638 857l-264-9-203 31z"/><path stroke-linejoin="round" stroke-miterlimit="1" fill="#048aab" stroke="#048aab" d="M1728 150l-75-100-29 36z"/><path stroke-linejoin="round" stroke-miterlimit="1" fill="#049cbf" stroke="#049cbf" d="M1742 512l-57-103 42 126z"/><path stroke-linejoin="round" stroke-miterlimit="1" fill="#049abd" stroke="#049abd" d="M1742 512l-38-97-19-6z"/><path stroke-linejoin="round" stroke-miterlimit="1" fill="#049dc1" stroke="#049dc1" d="M1727 535l-185 23 129 90z"/><path stroke-linejoin="round" stroke-miterlimit="1" fill="#049abc" stroke="#049abc" d="M1727 535l-42-126-120 60z"/><path stroke-linejoin="round" stroke-miterlimit="1" fill="#048eb0" stroke="#048eb0" d="M1729 185l-1-35-97 62z"/><path stroke-linejoin="round" stroke-miterlimit="1" fill="#048dae" stroke="#048dae" d="M1728 150l-136-9 39 71z"/><path stroke-linejoin="round" stroke-miterlimit="1" fill="#048bac" stroke="#048bac" d="M1728 150l-104-64-32 55z"/><path stroke-linejoin="round" stroke-miterlimit="1" fill="#04a3c7" stroke="#04a3c7" d="M1696 879l-44-153-66 153z"/><path stroke-linejoin="round" stroke-miterlimit="1" fill="#049abd" stroke="#049abd" d="M1727 535l-162-66-23 89z"/><path stroke-linejoin="round" stroke-miterlimit="1" fill="#0486a7" stroke="#0486a7" d="M1692-81L1570 50h83z"/><path stroke-linejoin="round" stroke-miterlimit="1" fill="#04a1c5" stroke="#04a1c5" d="M1652 726l-23-6-43 159z"/><path stroke-linejoin="round" stroke-miterlimit="1" fill="#0383a4" stroke="#0383a4" d="M1692-81l-261 56 34 27z"/><path stroke-linejoin="round" stroke-miterlimit="1" fill="#0382a2" stroke="#0382a2" d="M1692-81h-295l34 56z"/><path stroke-linejoin="round" stroke-miterlimit="1" fill="#04a1c5" stroke="#04a1c5" d="M1671 648l-42 72 23 6z"/><path stroke-linejoin="round" stroke-miterlimit="1" fill="#0495b7" stroke="#0495b7" d="M1685 409l-34-92-85 61z"/><path stroke-linejoin="round" stroke-miterlimit="1" fill="#0485a6" stroke="#0485a6" d="M1692-81L1465 2l105 48z"/><path stroke-linejoin="round" stroke-miterlimit="1" fill="#0496b8" stroke="#0496b8" d="M1685 409l-119-31-1 91z"/><path stroke-linejoin="round" stroke-miterlimit="1" fill="#049fc3" stroke="#049fc3" d="M1629 720l-100 20 57 139z"/><path stroke-linejoin="round" stroke-miterlimit="1" fill="#049fc2" stroke="#049fc2" d="M1671 648l-125 13 83 59z"/><path stroke-linejoin="round" stroke-miterlimit="1" fill="#049cbf" stroke="#049cbf" d="M1671 648l-129-90 4 103z"/><path stroke-linejoin="round" stroke-miterlimit="1" fill="#0488a9" stroke="#0488a9" d="M1653 50h-83l54 36z"/><path stroke-linejoin="round" stroke-miterlimit="1" fill="#048cad" stroke="#048cad" d="M1631 212l-39-71-21 41z"/><path stroke-linejoin="round" stroke-miterlimit="1" fill="#0492b4" stroke="#0492b4" d="M1651 317l-19-40-66 101z"/><path stroke-linejoin="round" stroke-miterlimit="1" fill="#048eb0" stroke="#048eb0" d="M1632 277l-61-95-127 166z"/><path stroke-linejoin="round" stroke-miterlimit="1" fill="#0491b3" stroke="#0491b3" d="M1632 277l-188 71 122 30z"/><path stroke-linejoin="round" stroke-miterlimit="1" fill="#048eb0" stroke="#048eb0" d="M1632 277l-1-65-60-30z"/><path stroke-linejoin="round" stroke-miterlimit="1" fill="#049dc1" stroke="#049dc1" d="M1629 720l-83-59-17 79z"/><path stroke-linejoin="round" stroke-miterlimit="1" fill="#0497ba" stroke="#0497ba" d="M1565 469l-41 51 18 38z"/><path stroke-linejoin="round" stroke-miterlimit="1" fill="#0489aa" stroke="#0489aa" d="M1624 86l-54-36 22 91z"/><path stroke-linejoin="round" stroke-miterlimit="1" fill="#048cad" stroke="#048cad" d="M1571 182l-67-42-60 208z"/><path stroke-linejoin="round" stroke-miterlimit="1" fill="#049dc1" stroke="#049dc1" d="M1586 879l-57-139-40 139z"/><path stroke-linejoin="round" stroke-miterlimit="1" fill="#048aab" stroke="#048aab" d="M1592 141l-88-1 67 42z"/><path stroke-linejoin="round" stroke-miterlimit="1" fill="#0489aa" stroke="#0489aa" d="M1592 141l-22-91-66 90z"/><path stroke-linejoin="round" stroke-miterlimit="1" fill="#0383a3" stroke="#0383a3" d="M1465 2l-34-27 27 23z"/><path stroke-linejoin="round" stroke-miterlimit="1" fill="#049bbe" stroke="#049bbe" d="M1529 740l-71 21 31 118z"/><path stroke-linejoin="round" stroke-miterlimit="1" fill="#0494b6" stroke="#0494b6" d="M1566 378l-119 93 118-2z"/><path stroke-linejoin="round" stroke-miterlimit="1" fill="#0491b3" stroke="#0491b3" d="M1566 378l-122-30 3 123z"/><path stroke-linejoin="round" stroke-miterlimit="1" fill="#0486a7" stroke="#0486a7" d="M1570 50L1465 2l39 138z"/><path stroke-linejoin="round" stroke-miterlimit="1" fill="#0495b7" stroke="#0495b7" d="M1565 469l-118 2 77 49z"/><path stroke-linejoin="round" stroke-miterlimit="1" fill="#048bac" stroke="#048bac" d="M1504 140l-157 149 97 59z"/><path stroke-linejoin="round" stroke-miterlimit="1" fill="#049bbe" stroke="#049bbe" d="M1546 661l-88 100 71-21z"/><path stroke-linejoin="round" stroke-miterlimit="1" fill="#0498bb" stroke="#0498bb" d="M1546 661l-134-44 46 144zm0 0l-4-103-130 59z"/><path stroke-linejoin="round" stroke-miterlimit="1" fill="#0497b9" stroke="#0497b9" d="M1542 558l-18-38-112 97z"/><path stroke-linejoin="round" stroke-miterlimit="1" fill="#049abd" stroke="#049abd" d="M1489 879l-31-118-10 118z"/><path stroke-linejoin="round" stroke-miterlimit="1" fill="#0494b6" stroke="#0494b6" d="M1524 520l-95-42-17 139z"/><path stroke-linejoin="round" stroke-miterlimit="1" fill="#0493b5" stroke="#0493b5" d="M1524 520l-77-49-18 7z"/><path stroke-linejoin="round" stroke-miterlimit="1" fill="#0383a4" stroke="#0383a4" d="M1465 2l-7-4-125 120z"/><path stroke-linejoin="round" stroke-miterlimit="1" fill="#0487a8" stroke="#0487a8" d="M1504 140l-171-22 14 171z"/><path stroke-linejoin="round" stroke-miterlimit="1" fill="#0485a6" stroke="#0485a6" d="M1504 140L1465 2l-132 116z"/><path stroke-linejoin="round" stroke-miterlimit="1" fill="#0491b3" stroke="#0491b3" d="M1429 478l-100 39 83 100z"/><path stroke-linejoin="round" stroke-miterlimit="1" fill="#0490b2" stroke="#0490b2" d="M1447 471l-3-123-15 130z"/><path stroke-linejoin="round" stroke-miterlimit="1" fill="#0495b7" stroke="#0495b7" d="M1458 761l-46-144-64 9zm0 0l-110-135 1 158z"/><path stroke-linejoin="round" stroke-miterlimit="1" fill="#0497ba" stroke="#0497ba" d="M1458 761l-104 72 94 46z"/><path stroke-linejoin="round" stroke-miterlimit="1" fill="#0496b8" stroke="#0496b8" d="M1458 761l-109 23 5 49z"/><path stroke-linejoin="round" stroke-miterlimit="1" fill="#0383a4" stroke="#0383a4" d="M1458-2l-27-23-98 143z"/><path stroke-linejoin="round" stroke-miterlimit="1" fill="#048daf" stroke="#048daf" d="M1444 348l-170 25 155 105z"/><path stroke-linejoin="round" stroke-miterlimit="1" fill="#0491b3" stroke="#0491b3" d="M1412 617l-83-100 4 76z"/><path stroke-linejoin="round" stroke-miterlimit="1" fill="#0495b7" stroke="#0495b7" d="M1448 879l-94-46-46 36z"/><path stroke-linejoin="round" stroke-miterlimit="1" fill="#048bac" stroke="#048bac" d="M1444 348l-97-59-73 84z"/><path stroke-linejoin="round" stroke-miterlimit="1" fill="#048eaf" stroke="#048eaf" d="M1429 478l-155-105 55 144z"/><path stroke-linejoin="round" stroke-miterlimit="1" fill="#0489aa" stroke="#0489aa" d="M1347 289l-69 57-4 27z"/><path stroke-linejoin="round" stroke-miterlimit="1" fill="#0380a0" stroke="#0380a0" d="M1431-25l-34-56h-88z"/><path stroke-linejoin="round" stroke-miterlimit="1" fill="#0381a2" stroke="#0381a2" d="M1431-25l-122-56 24 199z"/><path stroke-linejoin="round" stroke-miterlimit="1" fill="#0489aa" stroke="#0489aa" d="M1347 289l-39 12-30 45z"/><path stroke-linejoin="round" stroke-miterlimit="1" fill="#0492b4" stroke="#0492b4" d="M1412 617l-79-24 15 33z"/><path stroke-linejoin="round" stroke-miterlimit="1" fill="#0380a0" stroke="#0380a0" d="M1333 118l-24-199-110 74z"/><path stroke-linejoin="round" stroke-miterlimit="1" fill="#0486a7" stroke="#0486a7" d="M1347 289l-14-171-112 122z"/><path stroke-linejoin="round" stroke-miterlimit="1" fill="#0492b4" stroke="#0492b4" d="M1349 784l-1-158-13-3z"/><path stroke-linejoin="round" stroke-miterlimit="1" fill="#0380a1" stroke="#0380a1" d="M1333 118L1199-7l-14 82z"/><path stroke-linejoin="round" stroke-miterlimit="1" fill="#048eb0" stroke="#048eb0" d="M1335 623l-180 73 89 104z"/><path stroke-linejoin="round" stroke-miterlimit="1" fill="#0487a8" stroke="#0487a8" d="M1347 289l-126-49 87 61z"/><path stroke-linejoin="round" stroke-miterlimit="1" fill="#0491b3" stroke="#0491b3" d="M1348 626l-15-33 2 30zm1 158l-14-161-91 177z"/><path stroke-linejoin="round" stroke-miterlimit="1" fill="#0492b4" stroke="#0492b4" d="M1354 833l-5-49-99 41zm0 0l-104-8 58 44z"/><path stroke-linejoin="round" stroke-miterlimit="1" fill="#0490b2" stroke="#0490b2" d="M1349 784l-105 16 6 25z"/><path stroke-linejoin="round" stroke-miterlimit="1" fill="#048aab" stroke="#048aab" d="M1329 517l-55-144-113 89z"/><path stroke-linejoin="round" stroke-miterlimit="1" fill="#0382a3" stroke="#0382a3" d="M1333 118l-148-43 36 165z"/><path stroke-linejoin="round" stroke-miterlimit="1" fill="#048daf" stroke="#048daf" d="M1333 593l-4-76-143 35z"/><path stroke-linejoin="round" stroke-miterlimit="1" fill="#048eb0" stroke="#048eb0" d="M1335 623l-2-30-147-41z"/><path stroke-linejoin="round" stroke-miterlimit="1" fill="#048cae" stroke="#048cae" d="M1335 623l-149-71-31 144z"/><path stroke-linejoin="round" stroke-miterlimit="1" fill="#048aac" stroke="#048aac" d="M1329 517l-168-55 25 90z"/><path stroke-linejoin="round" stroke-miterlimit="1" fill="#0381a2" stroke="#0381a2" d="M1221 240l-36-165-37 91z"/><path stroke-linejoin="round" stroke-miterlimit="1" fill="#0487a8" stroke="#0487a8" d="M1308 301l-87-61 35 105z"/><path stroke-linejoin="round" stroke-miterlimit="1" fill="#048eb0" stroke="#048eb0" d="M1308 869l-58-44-116 48z"/><path stroke-linejoin="round" stroke-miterlimit="1" fill="#037d9d" stroke="#037d9d" d="M1309-81h-147l37 74z"/><path stroke-linejoin="round" stroke-miterlimit="1" fill="#0488a9" stroke="#0488a9" d="M1308 301l-52 44 22 1zm-34 72l-18-28-95 117z"/><path stroke-linejoin="round" stroke-miterlimit="1" fill="#0488aa" stroke="#0488aa" d="M1278 346l-22-1 18 28z"/><path stroke-linejoin="round" stroke-miterlimit="1" fill="#0485a6" stroke="#0485a6" d="M1256 345l-35-105-64 53z"/><path stroke-linejoin="round" stroke-miterlimit="1" fill="#0486a7" stroke="#0486a7" d="M1256 345l-99-52 4 169z"/><path stroke-linejoin="round" stroke-miterlimit="1" fill="#048daf" stroke="#048daf" d="M1250 825l-6-25-110 73z"/><path stroke-linejoin="round" stroke-miterlimit="1" fill="#037e9e" stroke="#037e9e" d="M1199-7l-27 12 13 70z"/><path stroke-linejoin="round" stroke-miterlimit="1" fill="#048cad" stroke="#048cad" d="M1244 800l-89-104-21 177z"/><path stroke-linejoin="round" stroke-miterlimit="1" fill="#0489aa" stroke="#0489aa" d="M1155 696l-82 128 61 49z"/><path stroke-linejoin="round" stroke-miterlimit="1" fill="#0485a5" stroke="#0485a5" d="M1161 462l-4-169-84 143z"/><path stroke-linejoin="round" stroke-miterlimit="1" fill="#037999" stroke="#037999" d="M1162-81H901l109 47z"/><path stroke-linejoin="round" stroke-miterlimit="1" fill="#0380a0" stroke="#0380a0" d="M1185 75l-42 23 5 68z"/><path stroke-linejoin="round" stroke-miterlimit="1" fill="#0383a4" stroke="#0383a4" d="M1221 240l-112 10 48 43z"/><path stroke-linejoin="round" stroke-miterlimit="1" fill="#0382a2" stroke="#0382a2" d="M1221 240l-73-74-39 84z"/><path stroke-linejoin="round" stroke-miterlimit="1" fill="#0488a9" stroke="#0488a9" d="M1155 696l-103 59 21 69z"/><path stroke-linejoin="round" stroke-miterlimit="1" fill="#037e9f" stroke="#037e9f" d="M1185 75l-13-70-33 64z"/><path stroke-linejoin="round" stroke-miterlimit="1" fill="#0488a9" stroke="#0488a9" d="M1186 552l-120 10 89 134z"/><path stroke-linejoin="round" stroke-miterlimit="1" fill="#0487a8" stroke="#0487a8" d="M1186 552l-25-90-50 26z"/><path stroke-linejoin="round" stroke-miterlimit="1" fill="#037d9d" stroke="#037d9d" d="M1199-7l-37-74 10 86z"/><path stroke-linejoin="round" stroke-miterlimit="1" fill="#0383a4" stroke="#0383a4" d="M1157 293l-54-18-30 161z"/><path stroke-linejoin="round" stroke-miterlimit="1" fill="#0486a7" stroke="#0486a7" d="M1186 552l-107-14-13 24z"/><path stroke-linejoin="round" stroke-miterlimit="1" fill="#0487a8" stroke="#0487a8" d="M1186 552l-75-64-32 50z"/><path stroke-linejoin="round" stroke-miterlimit="1" fill="#037f9f" stroke="#037f9f" d="M1185 75l-46-6 4 29z"/><path stroke-linejoin="round" stroke-miterlimit="1" fill="#0486a7" stroke="#0486a7" d="M1155 696l-89-134-55 79z"/><path stroke-linejoin="round" stroke-miterlimit="1" fill="#037b9b" stroke="#037b9b" d="M1162-81l-152 47 38 71z"/><path stroke-linejoin="round" stroke-miterlimit="1" fill="#037c9c" stroke="#037c9c" d="M1172 5l-10-86-114 118z"/><path stroke-linejoin="round" stroke-miterlimit="1" fill="#037d9d" stroke="#037d9d" d="M1172 5l-124 32 91 32z"/><path stroke-linejoin="round" stroke-miterlimit="1" fill="#0382a2" stroke="#0382a2" d="M1103 275l-56 6 26 155z"/><path stroke-linejoin="round" stroke-miterlimit="1" fill="#0380a1" stroke="#0380a1" d="M1148 166l-69 30 30 54z"/><path stroke-linejoin="round" stroke-miterlimit="1" fill="#0382a3" stroke="#0382a3" d="M1157 293l-48-43-6 25z"/><path stroke-linejoin="round" stroke-miterlimit="1" fill="#0485a6" stroke="#0485a6" d="M1161 462l-88-26 38 52z"/><path stroke-linejoin="round" stroke-miterlimit="1" fill="#0486a7" stroke="#0486a7" d="M1155 696l-144-55-7 34z"/><path stroke-linejoin="round" stroke-miterlimit="1" fill="#0380a0" stroke="#0380a0" d="M1148 166l-5-68-64 98z"/><path stroke-linejoin="round" stroke-miterlimit="1" fill="#0487a8" stroke="#0487a8" d="M1155 696l-151-21 48 80z"/><path stroke-linejoin="round" stroke-miterlimit="1" fill="#037e9e" stroke="#037e9e" d="M1143 98l-135 19 71 79z"/><path stroke-linejoin="round" stroke-miterlimit="1" fill="#037d9d" stroke="#037d9d" d="M1143 98l-129-4-6 23z"/><path stroke-linejoin="round" stroke-miterlimit="1" fill="#037d9e" stroke="#037d9e" d="M1143 98l-4-29-91-32z"/><path stroke-linejoin="round" stroke-miterlimit="1" fill="#037d9d" stroke="#037d9d" d="M1143 98l-95-61-34 57z"/><path stroke-linejoin="round" stroke-miterlimit="1" fill="#0488a9" stroke="#0488a9" d="M1134 873l-61-49-40 45z"/><path stroke-linejoin="round" stroke-miterlimit="1" fill="#037898" stroke="#037898" d="M1010-34L901-81l48 37z"/><path stroke-linejoin="round" stroke-miterlimit="1" fill="#0485a6" stroke="#0485a6" d="M1111 488l-42 25 10 25z"/><path stroke-linejoin="round" stroke-miterlimit="1" fill="#0485a5" stroke="#0485a5" d="M1111 488l-38-52-4 77z"/><path stroke-linejoin="round" stroke-miterlimit="1" fill="#0381a1" stroke="#0381a1" d="M1109 250l-62 31 56-6z"/><path stroke-linejoin="round" stroke-miterlimit="1" fill="#0380a1" stroke="#0380a1" d="M1109 250l-30-54-32 85z"/><path stroke-linejoin="round" stroke-miterlimit="1" fill="#0380a0" stroke="#0380a0" d="M1047 281L858 459l106 41z"/><path stroke-linejoin="round" stroke-miterlimit="1" fill="#0485a6" stroke="#0485a6" d="M1052 755l-48-80-3 69z"/><path stroke-linejoin="round" stroke-miterlimit="1" fill="#0383a4" stroke="#0383a4" d="M1069 513l-105-13 67 38z"/><path stroke-linejoin="round" stroke-miterlimit="1" fill="#0486a7" stroke="#0486a7" d="M1073 824l-21-69-37 72z"/><path stroke-linejoin="round" stroke-miterlimit="1" fill="#0383a4" stroke="#0383a4" d="M1073 436l-109 64 105 13z"/><path stroke-linejoin="round" stroke-miterlimit="1" fill="#0382a2" stroke="#0382a2" d="M1073 436l-26-155-83 219z"/><path stroke-linejoin="round" stroke-miterlimit="1" fill="#0484a5" stroke="#0484a5" d="M1079 538l-10-25-38 25z"/><path stroke-linejoin="round" stroke-miterlimit="1" fill="#0485a5" stroke="#0485a5" d="M1079 538h-48l35 24z"/><path stroke-linejoin="round" stroke-miterlimit="1" fill="#037e9f" stroke="#037e9f" d="M1079 196l-71-79 39 164z"/><path stroke-linejoin="round" stroke-miterlimit="1" fill="#0384a5" stroke="#0384a5" d="M1066 562l-35-24-20 103z"/><path stroke-linejoin="round" stroke-miterlimit="1" fill="#0486a7" stroke="#0486a7" d="M1073 824l-58 3 18 42z"/><path stroke-linejoin="round" stroke-miterlimit="1" fill="#037d9d" stroke="#037d9d" d="M1047 281l-39-164-53-6z"/><path stroke-linejoin="round" stroke-miterlimit="1" fill="#037c9c" stroke="#037c9c" d="M901 879l-204-38-59 16z"/><path stroke-linejoin="round" stroke-miterlimit="1" fill="#0383a4" stroke="#0383a4" d="M1031 538l-74 22 54 81z"/><path stroke-linejoin="round" stroke-miterlimit="1" fill="#037d9d" stroke="#037d9d" d="M1047 281l-255 57 66 121z"/><path stroke-linejoin="round" stroke-miterlimit="1" fill="#037a9a" stroke="#037a9a" d="M1048 37l-38-71-28 42z"/><path stroke-linejoin="round" stroke-miterlimit="1" fill="#0485a6" stroke="#0485a6" d="M1052 755l-51-11 14 83z"/><path stroke-linejoin="round" stroke-miterlimit="1" fill="#037b9b" stroke="#037b9b" d="M1047 281L852 116l-54 39zm0 0L798 155l-6 183z"/><path stroke-linejoin="round" stroke-miterlimit="1" fill="#037c9c" stroke="#037c9c" d="M1047 281l-92-170-103 5z"/><path stroke-linejoin="round" stroke-miterlimit="1" fill="#037b9b" stroke="#037b9b" d="M1048 37L982 8l32 86z"/><path stroke-linejoin="round" stroke-miterlimit="1" fill="#0384a5" stroke="#0384a5" d="M1033 869l-18-42-114 52z"/><path stroke-linejoin="round" stroke-miterlimit="1" fill="#037b9b" stroke="#037b9b" d="M1014 94L982 8l-20 91z"/><path stroke-linejoin="round" stroke-miterlimit="1" fill="#0382a2" stroke="#0382a2" d="M1031 538l-67-38-7 60z"/><path stroke-linejoin="round" stroke-miterlimit="1" fill="#0382a3" stroke="#0382a3" d="M1001 744l-98-28-2 163z"/><path stroke-linejoin="round" stroke-miterlimit="1" fill="#0383a4" stroke="#0383a4" d="M1004 675l-57 1 54 68z"/><path stroke-linejoin="round" stroke-miterlimit="1" fill="#0382a2" stroke="#0382a2" d="M1011 641l-54-81-33 24z"/><path stroke-linejoin="round" stroke-miterlimit="1" fill="#0382a3" stroke="#0382a3" d="M1011 641l-87-57 23 86z"/><path stroke-linejoin="round" stroke-miterlimit="1" fill="#0383a4" stroke="#0383a4" d="M1015 827l-14-83-100 135z"/><path stroke-linejoin="round" stroke-miterlimit="1" fill="#037c9c" stroke="#037c9c" d="M1014 94l-52 5 46 18z"/><path stroke-linejoin="round" stroke-miterlimit="1" fill="#037999" stroke="#037999" d="M1010-34l-61-10 33 52z"/><path stroke-linejoin="round" stroke-miterlimit="1" fill="#0383a4" stroke="#0383a4" d="M1011 641l-64 29 57 5z"/><path stroke-linejoin="round" stroke-miterlimit="1" fill="#037b9b" stroke="#037b9b" d="M1008 117l-46-18-7 12z"/><path stroke-linejoin="round" stroke-miterlimit="1" fill="#0382a3" stroke="#0382a3" d="M1001 744l-54-68-44 40z"/><path stroke-linejoin="round" stroke-miterlimit="1" fill="#0383a3" stroke="#0383a3" d="M1004 675l-57-5v6z"/><path stroke-linejoin="round" stroke-miterlimit="1" fill="#037a9a" stroke="#037a9a" d="M982 8L852 116l110-17z"/><path stroke-linejoin="round" stroke-miterlimit="1" fill="#037999" stroke="#037999" d="M982 8l-33-52-97 160z"/><path stroke-linejoin="round" stroke-miterlimit="1" fill="#037898" stroke="#037898" d="M949-44l-48-37-49 197z"/><path stroke-linejoin="round" stroke-miterlimit="1" fill="#037a9a" stroke="#037a9a" d="M962 99l-110 17 103-5z"/><path stroke-linejoin="round" stroke-miterlimit="1" fill="#0381a1" stroke="#0381a1" d="M964 500l-35 58 28 2z"/><path stroke-linejoin="round" stroke-miterlimit="1" fill="#037fa0" stroke="#037fa0" d="M964 500l-106-41 71 99z"/><path stroke-linejoin="round" stroke-miterlimit="1" fill="#0381a1" stroke="#0381a1" d="M957 560l-28-2-5 26z"/><path stroke-linejoin="round" stroke-miterlimit="1" fill="#0380a1" stroke="#0380a1" d="M947 670l-23-86-70 16z"/><path stroke-linejoin="round" stroke-miterlimit="1" fill="#037393" stroke="#037393" d="M901-81H542l65 53z"/><path stroke-linejoin="round" stroke-miterlimit="1" fill="#0380a1" stroke="#0380a1" d="M947 670l-93-70 49 116z"/><path stroke-linejoin="round" stroke-miterlimit="1" fill="#0382a2" stroke="#0382a2" d="M947 670l-44 46 44-40z"/><path stroke-linejoin="round" stroke-miterlimit="1" fill="#037f9f" stroke="#037f9f" d="M903 716L697 841l204 38z"/><path stroke-linejoin="round" stroke-miterlimit="1" fill="#0380a0" stroke="#0380a0" d="M929 558l-75 42 70-16z"/><path stroke-linejoin="round" stroke-miterlimit="1" fill="#037f9f" stroke="#037f9f" d="M929 558l-71-99-4 141zm-26 158l-49-116-45 23z"/><path stroke-linejoin="round" stroke-miterlimit="1" fill="#037d9d" stroke="#037d9d" d="M858 459l-99 68 95 73z"/><path stroke-linejoin="round" stroke-miterlimit="1" fill="#037695" stroke="#037695" d="M901-81L607-28l245 144z"/><path stroke-linejoin="round" stroke-miterlimit="1" fill="#037e9e" stroke="#037e9e" d="M903 716l-94-93-112 218z"/><path stroke-linejoin="round" stroke-miterlimit="1" fill="#037999" stroke="#037999" d="M798 155l-67 148 61 35z"/><path stroke-linejoin="round" stroke-miterlimit="1" fill="#037898" stroke="#037898" d="M798 155l-43 7-24 141z"/><path stroke-linejoin="round" stroke-miterlimit="1" fill="#037b9b" stroke="#037b9b" d="M809 623L629 753l68 88z"/><path stroke-linejoin="round" stroke-miterlimit="1" fill="#037898" stroke="#037898" d="M852 116l-97 46 43-7z"/><path stroke-linejoin="round" stroke-miterlimit="1" fill="#037695" stroke="#037695" d="M852 116L607-28l148 190z"/><path stroke-linejoin="round" stroke-miterlimit="1" fill="#037d9d" stroke="#037d9d" d="M854 600l-95-73 50 96z"/><path stroke-linejoin="round" stroke-miterlimit="1" fill="#037b9b" stroke="#037b9b" d="M858 459l-66-121-43 154z"/><path stroke-linejoin="round" stroke-miterlimit="1" fill="#037c9c" stroke="#037c9c" d="M858 459l-109 33 10 35z"/><path stroke-linejoin="round" stroke-miterlimit="1" fill="#037a9a" stroke="#037a9a" d="M792 338l-84 126 41 28z"/><path stroke-linejoin="round" stroke-miterlimit="1" fill="#037b9b" stroke="#037b9b" d="M809 623l-91-79-89 209zm0 0l-50-96-41 17z"/><path stroke-linejoin="round" stroke-miterlimit="1" fill="#037999" stroke="#037999" d="M792 338l-61-35-23 161z"/><path stroke-linejoin="round" stroke-miterlimit="1" fill="#037898" stroke="#037898" d="M718 544l-180 81 91 128zm13-241L628 429l80 35z"/><path stroke-linejoin="round" stroke-miterlimit="1" fill="#037696" stroke="#037696" d="M755 162l-214 24 190 117z"/><path stroke-linejoin="round" stroke-miterlimit="1" fill="#037494" stroke="#037494" d="M755 162L607-28l-66 214z"/><path stroke-linejoin="round" stroke-miterlimit="1" fill="#037b9b" stroke="#037b9b" d="M759 527l-10-35-31 52z"/><path stroke-linejoin="round" stroke-miterlimit="1" fill="#037a9a" stroke="#037a9a" d="M749 492l-41-28 10 80z"/><path stroke-linejoin="round" stroke-miterlimit="1" fill="#037392" stroke="#037392" d="M607-28L550-5l-9 191z"/><path stroke-linejoin="round" stroke-miterlimit="1" fill="#037594" stroke="#037594" d="M731 303L541 186l-35 94z"/><path stroke-linejoin="round" stroke-miterlimit="1" fill="#037696" stroke="#037696" d="M731 303l-225 22 122 104z"/><path stroke-linejoin="round" stroke-miterlimit="1" fill="#037595" stroke="#037595" d="M731 303l-225-23v45z"/><path stroke-linejoin="round" stroke-miterlimit="1" fill="#037999" stroke="#037999" d="M718 544l-10-80-80-35z"/><path stroke-linejoin="round" stroke-miterlimit="1" fill="#037797" stroke="#037797" d="M718 544l-90-115-112 74zm0 0l-202-41 22 122z"/><path stroke-linejoin="round" stroke-miterlimit="1" fill="#037a99" stroke="#037a99" d="M697 841l-68-88 9 104z"/><path stroke-linejoin="round" stroke-miterlimit="1" fill="#036988" stroke="#036988" d="M58-81h-237l86 9z"/><path stroke-linejoin="round" stroke-miterlimit="1" fill="#037393" stroke="#037393" d="M541 186l-33 34-2 60z"/><path stroke-linejoin="round" stroke-miterlimit="1" fill="#037695" stroke="#037695" d="M628 429l-90 19-22 55z"/><path stroke-linejoin="round" stroke-miterlimit="1" fill="#037595" stroke="#037595" d="M628 429L506 325l32 123z"/><path stroke-linejoin="round" stroke-miterlimit="1" fill="#037897" stroke="#037897" d="M629 753l-91-128 38 136z"/><path stroke-linejoin="round" stroke-miterlimit="1" fill="#037998" stroke="#037998" d="M638 857l-9-104-53 8z"/><path stroke-linejoin="round" stroke-miterlimit="1" fill="#037797" stroke="#037797" d="M638 857l-62-96-107 38z"/><path stroke-linejoin="round" stroke-miterlimit="1" fill="#037695" stroke="#037695" d="M638 857l-169-58-95 49zM538 625l-22-122-20 81z"/><path stroke-linejoin="round" stroke-miterlimit="1" fill="#037392" stroke="#037392" d="M550-5l-17 193 8-2z"/><path stroke-linejoin="round" stroke-miterlimit="1" fill="#037291" stroke="#037291" d="M607-28l-65-53 8 76z"/><path stroke-linejoin="round" stroke-miterlimit="1" fill="#037494" stroke="#037494" d="M538 448l-32-123-32 46z"/><path stroke-linejoin="round" stroke-miterlimit="1" fill="#037392" stroke="#037392" d="M541 186l-8 2-25 32z"/><path stroke-linejoin="round" stroke-miterlimit="1" fill="#037190" stroke="#037190" d="M550-5L343 26l190 162z"/><path stroke-linejoin="round" stroke-miterlimit="1" fill="#037696" stroke="#037696" d="M576 761h-90l-17 38zm0 0l-38-136-52 136z"/><path stroke-linejoin="round" stroke-miterlimit="1" fill="#03708f" stroke="#03708f" d="M533 188L343 26l-42 124z"/><path stroke-linejoin="round" stroke-miterlimit="1" fill="#037695" stroke="#037695" d="M538 625l-42-41-10 177z"/><path stroke-linejoin="round" stroke-miterlimit="1" fill="#03708f" stroke="#03708f" d="M550-5L354-4l-11 30zm0 0l-8-76L354-4z"/><path stroke-linejoin="round" stroke-miterlimit="1" fill="#037291" stroke="#037291" d="M533 188l-232-38 207 70z"/><path stroke-linejoin="round" stroke-miterlimit="1" fill="#036f8e" stroke="#036f8e" d="M542-81l-216 1 28 76z"/><path stroke-linejoin="round" stroke-miterlimit="1" fill="#037594" stroke="#037594" d="M538 448l-64-77 42 132z"/><path stroke-linejoin="round" stroke-miterlimit="1" fill="#037494" stroke="#037494" d="M496 584l-113-18 103 195z"/><path stroke-linejoin="round" stroke-miterlimit="1" fill="#037191" stroke="#037191" d="M508 220l-207-70 157 106z"/><path stroke-linejoin="round" stroke-miterlimit="1" fill="#036f8e" stroke="#036f8e" d="M343 26l-38 47-4 77z"/><path stroke-linejoin="round" stroke-miterlimit="1" fill="#037393" stroke="#037393" d="M486 761L383 566l-70 69z"/><path stroke-linejoin="round" stroke-miterlimit="1" fill="#037392" stroke="#037392" d="M508 220l-50 36 48 24z"/><path stroke-linejoin="round" stroke-miterlimit="1" fill="#037493" stroke="#037493" d="M516 503l-42-132-109 121z"/><path stroke-linejoin="round" stroke-miterlimit="1" fill="#037494" stroke="#037494" d="M516 503l-133 63 113 18z"/><path stroke-linejoin="round" stroke-miterlimit="1" fill="#037393" stroke="#037393" d="M516 503l-151-11 18 74z"/><path stroke-linejoin="round" stroke-miterlimit="1" fill="#037392" stroke="#037392" d="M506 325v-45l-48-24z"/><path stroke-linejoin="round" stroke-miterlimit="1" fill="#037393" stroke="#037393" d="M506 325l-48-69 16 115z"/><path stroke-linejoin="round" stroke-miterlimit="1" fill="#037291" stroke="#037291" d="M474 371l-16-115-133 114z"/><path stroke-linejoin="round" stroke-miterlimit="1" fill="#037594" stroke="#037594" d="M486 761l-112 87 95-49z"/><path stroke-linejoin="round" stroke-miterlimit="1" fill="#037393" stroke="#037393" d="M486 761L313 635l61 213z"/><path stroke-linejoin="round" stroke-miterlimit="1" fill="#037291" stroke="#037291" d="M474 371l-149-1 40 122z"/><path stroke-linejoin="round" stroke-miterlimit="1" fill="#037190" stroke="#037190" d="M458 256l-215 36 82 78z"/><path stroke-linejoin="round" stroke-miterlimit="1" fill="#03708f" stroke="#03708f" d="M458 256L301 150l-58 142z"/><path stroke-linejoin="round" stroke-miterlimit="1" fill="#036f8e" stroke="#036f8e" d="M301 150l-66 35 8 107z"/><path stroke-linejoin="round" stroke-miterlimit="1" fill="#03708f" stroke="#03708f" d="M325 370l-82-78v10z"/><path stroke-linejoin="round" stroke-miterlimit="1" fill="#036e8d" stroke="#036e8d" d="M354-4l-28-76-12 47z"/><path stroke-linejoin="round" stroke-miterlimit="1" fill="#037190" stroke="#037190" d="M374 848L253 677l-70 88z"/><path stroke-linejoin="round" stroke-miterlimit="1" fill="#037291" stroke="#037291" d="M374 848l-61-213-60 42zm9-282l-18-74-52 143z"/><path stroke-linejoin="round" stroke-miterlimit="1" fill="#037190" stroke="#037190" d="M365 492l-194 53 142 90zm9 356l-191-83-12 114z"/><path stroke-linejoin="round" stroke-miterlimit="1" fill="#03708f" stroke="#03708f" d="M365 492l-40-122-178 138zm0 0l-218 16 24 37z"/><path stroke-linejoin="round" stroke-miterlimit="1" fill="#036f8e" stroke="#036f8e" d="M325 370l-127-19-51 157zM354-4l-28 22 17 8z"/><path stroke-linejoin="round" stroke-miterlimit="1" fill="#036f8d" stroke="#036f8d" d="M354-4l-40-29 12 51z"/><path stroke-linejoin="round" stroke-miterlimit="1" fill="#036f8e" stroke="#036f8e" d="M343 26l-17-8-21 55z"/><path stroke-linejoin="round" stroke-miterlimit="1" fill="#036e8c" stroke="#036e8c" d="M326 18l-12-51-145-8z"/><path stroke-linejoin="round" stroke-miterlimit="1" fill="#036d8c" stroke="#036d8c" d="M326-80l-112 4 100 43z"/><path stroke-linejoin="round" stroke-miterlimit="1" fill="#03708e" stroke="#03708e" d="M325 370l-82-68-45 49z"/><path stroke-linejoin="round" stroke-miterlimit="1" fill="#036e8d" stroke="#036e8d" d="M326 18L169-41 305 73z"/><path stroke-linejoin="round" stroke-miterlimit="1" fill="#036d8c" stroke="#036d8c" d="M305 73L169-41 143-9z"/><path stroke-linejoin="round" stroke-miterlimit="1" fill="#036f8d" stroke="#036f8d" d="M305 73l-91 73 87 4z"/><path stroke-linejoin="round" stroke-miterlimit="1" fill="#03708f" stroke="#03708f" d="M313 635l-142-90 82 132z"/><path stroke-linejoin="round" stroke-miterlimit="1" fill="#036d8c" stroke="#036d8c" d="M314-33L214-76l-45 35z"/><path stroke-linejoin="round" stroke-miterlimit="1" fill="#036e8d" stroke="#036e8d" d="M301 150l-87-4 16 18z"/><path stroke-linejoin="round" stroke-miterlimit="1" fill="#036e8c" stroke="#036e8c" d="M305 73L130 46l84 100z"/><path stroke-linejoin="round" stroke-miterlimit="1" fill="#036d8c" stroke="#036d8c" d="M305 73L143-9l-13 55z"/><path stroke-linejoin="round" stroke-miterlimit="1" fill="#036f8d" stroke="#036f8d" d="M301 150l-71 14 5 21z"/><path stroke-linejoin="round" stroke-miterlimit="1" fill="#036e8d" stroke="#036e8d" d="M198 351l-67 29 16 128z"/><path stroke-linejoin="round" stroke-miterlimit="1" fill="#03708f" stroke="#03708f" d="M253 677l-82-132 11 132zm0 0h-71l1 88z"/><path stroke-linejoin="round" stroke-miterlimit="1" fill="#036e8d" stroke="#036e8d" d="M235 185L131 380l67-29z"/><path stroke-linejoin="round" stroke-miterlimit="1" fill="#036d8c" stroke="#036d8c" d="M235 185L2 330l129 50z"/><path stroke-linejoin="round" stroke-miterlimit="1" fill="#036c8b" stroke="#036c8b" d="M235 185l-247-16L2 330z"/><path stroke-linejoin="round" stroke-miterlimit="1" fill="#036f8e" stroke="#036f8e" d="M243 292l-45 59 45-49zm0 0l-8-107-37 166z"/><path stroke-linejoin="round" stroke-miterlimit="1" fill="#036d8c" stroke="#036d8c" d="M235 185l-21-39-226 23z"/><path stroke-linejoin="round" stroke-miterlimit="1" fill="#036e8d" stroke="#036e8d" d="M235 185l-5-21-16-18z"/><path stroke-linejoin="round" stroke-miterlimit="1" fill="#036f8e" stroke="#036f8e" d="M182 677l-11-132-53 1zm1 88l-1-88-21 85z"/><path stroke-linejoin="round" stroke-miterlimit="1" fill="#03708e" stroke="#03708e" d="M183 765l-22-3 10 117z"/><path stroke-linejoin="round" stroke-miterlimit="1" fill="#036c8a" stroke="#036c8a" d="M214-76L64-81l105 40z"/><path stroke-linejoin="round" stroke-miterlimit="1" fill="#036d8b" stroke="#036d8b" d="M214 146L130 46l-39 7z"/><path stroke-linejoin="round" stroke-miterlimit="1" fill="#036c8b" stroke="#036c8b" d="M214 146L91 53-12 169z"/><path stroke-linejoin="round" stroke-miterlimit="1" fill="#036f8e" stroke="#036f8e" d="M171 879l-10-117-50 2zm11-202l-74 63 53 22z"/><path stroke-linejoin="round" stroke-miterlimit="1" fill="#036e8c" stroke="#036e8c" d="M118 546l-94 46 37 121z"/><path stroke-linejoin="round" stroke-miterlimit="1" fill="#036e8d" stroke="#036e8d" d="M147 508l-16-128-56 16z"/><path stroke-linejoin="round" stroke-miterlimit="1" fill="#036d8c" stroke="#036d8c" d="M171 879L30 770l-209 109z"/><path stroke-linejoin="round" stroke-miterlimit="1" fill="#036e8d" stroke="#036e8d" d="M182 677l-64-131-57 167z"/><path stroke-linejoin="round" stroke-miterlimit="1" fill="#036f8d" stroke="#036f8d" d="M182 677L61 713l47 27z"/><path stroke-linejoin="round" stroke-miterlimit="1" fill="#036b8a" stroke="#036b8a" d="M169-41L64-81l53 64z"/><path stroke-linejoin="round" stroke-miterlimit="1" fill="#036f8d" stroke="#036f8d" d="M171 545l-24-37-29 38z"/><path stroke-linejoin="round" stroke-miterlimit="1" fill="#036e8d" stroke="#036e8d" d="M171 879l-60-115-81 6z"/><path stroke-linejoin="round" stroke-miterlimit="1" fill="#036c8b" stroke="#036c8b" d="M169-41l-52 24 26 8z"/><path stroke-linejoin="round" stroke-miterlimit="1" fill="#036d8c" stroke="#036d8c" d="M131 380L2 330l73 66z"/><path stroke-linejoin="round" stroke-miterlimit="1" fill="#036f8e" stroke="#036f8e" d="M161 762l-53-22 3 24z"/><path stroke-linejoin="round" stroke-miterlimit="1" fill="#036c8b" stroke="#036c8b" d="M143-9L97 15l33 31z"/><path stroke-linejoin="round" stroke-miterlimit="1" fill="#036c8a" stroke="#036c8a" d="M143-9l-26-8-20 32z"/><path stroke-linejoin="round" stroke-miterlimit="1" fill="#036e8d" stroke="#036e8d" d="M147 508L75 396l43 150z"/><path stroke-linejoin="round" stroke-miterlimit="1" fill="#036b8a" stroke="#036b8a" d="M2 330l-14-161-41 70z"/><path stroke-linejoin="round" stroke-miterlimit="1" fill="#036d8c" stroke="#036d8c" d="M118 546L75 396 24 592z"/><path stroke-linejoin="round" stroke-miterlimit="1" fill="#036c8a" stroke="#036c8a" d="M130 46L97 15l-6 38z"/><path stroke-linejoin="round" stroke-miterlimit="1" fill="#036e8c" stroke="#036e8c" d="M111 764l-62-8-19 14z"/><path stroke-linejoin="round" stroke-miterlimit="1" fill="#036b8a" stroke="#036b8a" d="M91 53l-123 52 20 64z"/><path stroke-linejoin="round" stroke-miterlimit="1" fill="#036c8a" stroke="#036c8a" d="M117-17L77 11l20 4z"/><path stroke-linejoin="round" stroke-miterlimit="1" fill="#036b8a" stroke="#036b8a" d="M117-17L64-81l13 92z"/><path stroke-linejoin="round" stroke-miterlimit="1" fill="#036c8b" stroke="#036c8b" d="M75 396l-180 129 129 67z"/><path stroke-linejoin="round" stroke-miterlimit="1" fill="#036b89" stroke="#036b89" d="M77 11L64-81 20-30z"/><path stroke-linejoin="round" stroke-miterlimit="1" fill="#036e8d" stroke="#036e8d" d="M111 764l-3-24-59 16zm-3-24l-47-27-12 43z"/><path stroke-linejoin="round" stroke-miterlimit="1" fill="#036c8a" stroke="#036c8a" d="M30 770l-145 5-64 104z"/><path stroke-linejoin="round" stroke-miterlimit="1" fill="#036b89" stroke="#036b89" d="M64-81h-6L20-30z"/><path stroke-linejoin="round" stroke-miterlimit="1" fill="#036c8a" stroke="#036c8a" d="M75 396l-197 70 17 59zM97 15l-20-4 14 42z"/><path stroke-linejoin="round" stroke-miterlimit="1" fill="#036d8c" stroke="#036d8c" d="M61 713L24 592l-53 92z"/><path stroke-linejoin="round" stroke-miterlimit="1" fill="#036b8a" stroke="#036b8a" d="M91 53L77 11-30 9z"/><path stroke-linejoin="round" stroke-miterlimit="1" fill="#036b89" stroke="#036b89" d="M91 53L-30 9l-2 96z"/><path stroke-linejoin="round" stroke-miterlimit="1" fill="#036c8a" stroke="#036c8a" d="M75 396L2 330l-124 136z"/><path stroke-linejoin="round" stroke-miterlimit="1" fill="#036b89" stroke="#036b89" d="M77 11L20-30-30 9z"/><path stroke-linejoin="round" stroke-miterlimit="1" fill="#036d8c" stroke="#036d8c" d="M49 756l-78-72 59 86zm12-43l-90-29 78 72z"/><path stroke-linejoin="round" stroke-miterlimit="1" fill="#036a88" stroke="#036a88" d="M58-81l-151 9L20-30zM20-30L-93-72l58 66z"/><path stroke-linejoin="round" stroke-miterlimit="1" fill="#036c8b" stroke="#036c8b" d="M24 592l-107 3 54 89z"/><path stroke-linejoin="round" stroke-miterlimit="1" fill="#036c8a" stroke="#036c8a" d="M24 592l-129-67 22 70z"/><path stroke-linejoin="round" stroke-miterlimit="1" fill="#036d8b" stroke="#036d8b" d="M30 770l-59-86-14 1z"/><path stroke-linejoin="round" stroke-miterlimit="1" fill="#036c8b" stroke="#036c8b" d="M30 770l-73-85-72 90z"/><path stroke-linejoin="round" stroke-miterlimit="1" fill="#036a89" stroke="#036a89" d="M20-30L-35-6l5 15z"/><path stroke-linejoin="round" stroke-miterlimit="1" fill="#036c8b" stroke="#036c8b" d="M-29 684l-54-89 40 90z"/><path stroke-linejoin="round" stroke-miterlimit="1" fill="#036b89" stroke="#036b89" d="M2 330l-96-76-85 145zm0 0l-181 69 57 67z"/><path stroke-linejoin="round" stroke-miterlimit="1" fill="#036b8a" stroke="#036b8a" d="M2 330l-55-91-41 15z"/><path stroke-linejoin="round" stroke-miterlimit="1" fill="#036a88" stroke="#036a88" d="M-30 9l-72 53 70 43z"/><path stroke-linejoin="round" stroke-miterlimit="1" fill="#036b89" stroke="#036b89" d="M-12 169l-20-64-21 134z"/><path stroke-linejoin="round" stroke-miterlimit="1" fill="#036a88" stroke="#036a88" d="M-94 254l-58 12-27 133zm62-149l-147 118 85 31zm0 0l-147-8v126z"/><path stroke-linejoin="round" stroke-miterlimit="1" fill="#036b89" stroke="#036b89" d="M-32 105l-62 149 41-15z"/><path stroke-linejoin="round" stroke-miterlimit="1" fill="#036a88" stroke="#036a88" d="M-32 105l-70-43-77 35zm2-96l-5-15-67 68z"/><path stroke-linejoin="round" stroke-miterlimit="1" fill="#036b8a" stroke="#036b8a" d="M-43 685l-114 27 42 63z"/><path stroke-linejoin="round" stroke-miterlimit="1" fill="#036a88" stroke="#036a88" d="M-35-6l-58-66-9 134z"/><path stroke-linejoin="round" stroke-miterlimit="1" fill="#036987" stroke="#036987" d="M-93-72l-86 73 77 61z"/><path stroke-linejoin="round" stroke-miterlimit="1" fill="#036b8a" stroke="#036b8a" d="M-43 685l-40-90-74 117z"/><path stroke-linejoin="round" stroke-miterlimit="1" fill="#036a89" stroke="#036a89" d="M-122 466l-57-67v20z"/><path stroke-linejoin="round" stroke-miterlimit="1" fill="#036a88" stroke="#036a88" d="M-94 254l-85-31 27 43z"/><path stroke-linejoin="round" stroke-miterlimit="1" fill="#036b89" stroke="#036b89" d="M-83 595l-22-70-67 45zm0 0l-89-25 15 142z"/><path stroke-linejoin="round" stroke-miterlimit="1" fill="#036987" stroke="#036987" d="M-102 62l-77 29v6zm9-134l-86-9V1z"/><path stroke-linejoin="round" stroke-miterlimit="1" fill="#036b89" stroke="#036b89" d="M-115 775l-64-18v122zm10-250l-17-59-57 88zm0 0l-74 29 7 16z"/><path stroke-linejoin="round" stroke-miterlimit="1" fill="#036987" stroke="#036987" d="M-102 62l-77-61v90z"/><path stroke-linejoin="round" stroke-miterlimit="1" fill="#036b89" stroke="#036b89" d="M-115 775l-42-63-22 45z"/><path stroke-linejoin="round" stroke-miterlimit="1" fill="#036a89" stroke="#036a89" d="M-122 466l-57-47v135z"/><path stroke-linejoin="round" stroke-miterlimit="1" fill="#036b89" stroke="#036b89" d="M-157 712l-15-142-7 187z"/><path stroke-linejoin="round" stroke-miterlimit="1" fill="#036a88" stroke="#036a88" d="M-152 266l-27-43v176z"/><path stroke-linejoin="round" stroke-miterlimit="1" fill="#036a89" stroke="#036a89" d="M-172 570l-7-16v203z"/></svg>