<svg xmlns="http://www.w3.org/2000/svg" viewBox="0 0 233.9 84.5"><style>.st0{fill:#349bb9}</style><path class="st0" d="M129.3 16.5c1.7-1.6 6.9-6.4 3.9-12.1-1-2-2.8-3.5-4.7-4.1-1.7-.5-3.5-.4-5.1.5-6 3.2-11.1 9.6-15.6 15.2l-1.4 1.7c-6.3 7.8-11.8 15.1-16.9 22.2C88.8 40.9 88 42 87.3 43 82 50.5 76.5 58.2 70.1 64.8c-1.6 1.7-3.2 2.5-3.6 2.4-.1-.1-.1-.3 0-.9.4-2.3 1.6-4.4 2.8-6.5.3-.5.6-1 .8-1.5 1-1.8 2.1-3.7 3.1-5.5 1.6-2.8 3.3-5.7 4.8-8.7.8-1.6 1.6-3.2 2.5-4.8 3-5.7 6.2-11.7 7.3-18.5.6-3.4-.3-6.7-2.2-8.9-2.6-2.9-6.3-3.3-11-1.1-2.4 1.1-4.7 2.6-7 4.5-6.3 5.2-11.9 11.3-17.3 17.3-1.9 2.1-3.9 4.3-5.9 6.4-8.5 9-16.9 17.5-26.3 26.9-1.1 1.1-2.3 1.4-2.8 1-.4-.3-.6-1.3.1-2.8 4-8.9 9.6-17.7 17-26.9 2.4-3 4.9-5.6 7.6-8.4.7-.8 1.5-1.5 2.2-2.3.4-.4.8-.8 1.2-1.3 3-3 6-6.1 6.9-10.5.8-4-1.7-8.2-5.6-9.5-5-1.6-8.8 3.2-10.4 5.2-9.7 12.1-22 28.3-30.8 46.7-1.4 2.9-2.7 6.1-3.3 9.5C-.7 72 .7 78.9 5.9 82.4c.2.2.5.3.7.4 1.9 1.1 3.9 1.7 5.9 1.7 2.3 0 4.7-.7 7-2.2 7.1-4.4 11.4-9.2 16.3-14.8 1.3-1.4 2.6-2.9 4-4.5 3.2-3.4 5.9-6.6 8.6-9.6 5.4-6.1 10.4-11.8 17.3-18.4 0 0 .1 0 .1-.1-.1.7-.6 2.2-1.9 5l-.1.2c-1.3 2.8-2.8 5.6-4.3 8.3-3.8 7.1-7.8 14.4-8.5 23.1-.3 4.6 1.3 8.5 4.5 10.8 3.2 2.3 7.4 2.7 11.7.9 10.9-4.4 18-14.1 24.9-23.5 1.2-1.6 2.4-3.2 3.6-4.8C105.3 42.7 116.5 28.5 129.3 16.5zM217.6 53.6c-2.6-.5-5.4.7-7.5 3.1-4.2 4.9-12.8 13.2-22.4 13.4-3.9.1-7.4-1.8-9.1-4.7-1.2-2.2-1.4-5.1-.3-7 1.1-2 3.2-2.1 5.4-2.1.5 0 .9 0 1.4 0 13.8-.9 27.7-7.6 37.1-18.2 4.4-4.8 15.9-17.7 9.8-28-3.1-5.1-9.1-7.2-16.6-5.7C198 8 185.7 22.5 175.5 35.8l-1.3 1.7c-10.7 14.1-22.8 30.1-40.9 32.6-.5.1-1.1.1-1.7.2-3.3.3-6.7-.9-8.8-3-1.6-1.6-2.3-3.5-2.1-5.7.3-3.6 3.3-5.4 9.2-5.6 4.7-.1 8.6-.8 12.6-2.3 6-2.2 12-5.8 17.7-10.7 6.5-5.5 13.4-12.6 15.8-22.5 1.2-4.8.4-9-2.2-12.1-2.6-3.1-6.7-4.6-11.7-4.3-2 .1-4.3.6-7 1.5-4.7 1.5-9.1 4.1-13.2 6.6-8.9 5.5-16.7 12.8-22.7 21.1-5.6 7.8-14.3 22.9-10.1 36.5 1.9 6.1 6.5 10.9 12.5 13 2.7.9 5.6 1.4 8.6 1.4 6.6 0 13.7-2.3 20.3-6.7 2.6-1.7 5.2-3.7 7.6-5.7.9-.7 1.9-1.5 2.8-2.2.1 0 .1-.1.2-.2.1-.1.2-.1.3-.2.2-.2.5-.4.6-.6.9-.7 1.8-1.4 2.7-2.1 2.2 7.9 6.1 12.9 12.1 15.5 13 5.5 28-1.3 37.7-9.6 3.5-3 5.8-5.8 7.2-8.7.9-2 1.1-3.8.4-5.7C221.6 55.6 219.8 54 217.6 53.6zM199.7 28.1L199.7 28.1c4.9-4 10.4-6.8 17.3-9.7l.3-.1c1-.4 1.3-.5 1.7-.1.1.2 0 .9-.2 1.4-6.5 12.5-21.5 21.8-30.3 21.8-.1 0-.1 0-.2 0C191.1 35.6 195.4 31.6 199.7 28.1zM141.2 29.7c5.7-5.1 12.7-8.3 18.8-11l.3-.1c.8-.4 1.4-.6 1.9-.2.2.2.1.6-.3 1.3-5.3 10.3-19.6 21.9-30.5 22C133.7 37 137 33.4 141.2 29.7z"/></svg>