<?xml version="1.0" encoding="utf-8"?>
<!-- Generator: Adobe Illustrator 17.0.0, SVG Export Plug-In . SVG Version: 6.00 Build 0)  -->
<!DOCTYPE svg PUBLIC "-//W3C//DTD SVG 1.1//EN" "http://www.w3.org/Graphics/SVG/1.1/DTD/svg11.dtd">
<svg version="1.1" id="Layer_1" xmlns="http://www.w3.org/2000/svg" xmlns:xlink="http://www.w3.org/1999/xlink" x="0px" y="0px"
	 width="501.3px" height="165.7px" viewBox="0 0 501.3 165.7" enable-background="new 0 0 501.3 165.7" xml:space="preserve">
<path fill="#FFFFFF" d="M481.2,111c-39.2,23.3-67.8,38.3-84.2,7c33.8-24.3,74.1-64.4,54-98.1C419.9-32.4,350,26.8,350,98.9
	c0,8.4,1,16.5,3,24.2c-28.5,17-56.2,20.9-69.8-5.1c33.8-24.3,74.1-64.4,54-98.1c-31.2-52.3-101.1,6.8-101.1,79
	c0,3.7,0.2,7.3,0.6,10.8c-4.3,1.2-8.1,1-11.4-0.5c-4.5-2.1-8.3-6.5-11.6-12.2c17.6-38,15.7-79.7-14.2-78.6
	c-20,0.7-23,24.4-20.1,40.9c0.9,6.7,3.1,19.2,7.6,32.1c-4,15.4-19.9,53.6-47.2,40.9c-29.4-13.7-10.7-49-6.4-90.9
	c0.9-8.3,4.2-19.5-7-21.4c-1.4-0.2-2.8-0.4-4.1-0.5c-1.3-0.1-2.6-0.1-4-0.1c-9.1,0.3-18.8,4.5-18.3,12.9
	c3.3,51.6-13.6,106.9-39.9,99c-28.5-8.6-27.3-52.9-17-81.4c7.5-21,10.4-23.1,16.2-34.4c0.5-1.7,2.8-6.9,2.7-7.5
	C61.8,1.4,59.9,0,48.3,0.5C40.9,0.8,35.8,1.2,33,1.9c-4.8,1.6-8.5,4.6-11.2,8.9C12,28.5-1.4,58.7,0.1,99.6
	c1.5,40.8,18.6,67.2,47.9,66.1c29.3-1.1,54.2-26.4,54.2-26.4s2.5,27.5,37,26.2c27.6-1,47.3-19.9,63-46.6c3.9,4.3,8.4,7.9,13.6,10.4
	c4.9,2.3,10.1,3.5,15.4,3.5c3.5,0,7.1-0.5,10.7-1.5c5.8,11.8,23.3,34.4,58.1,34.4c25.1,0,48.3-12.9,63.1-23.2
	c9.1,11.1,25.3,23.2,50.8,23.2c40.3,0,75-39,82.7-47.7C504,109.6,505.3,96.7,481.2,111z M304,33.7c27,10.8-8.6,51.3-32.5,64.6
	C266.7,74.5,277,22.9,304,33.7z M417.9,33.7c27,10.8-8.6,51.3-32.5,64.6C380.6,74.5,390.9,22.9,417.9,33.7z"/>
</svg>
