<svg width="263" height="96" viewBox="0 0 263 96" xmlns="http://www.w3.org/2000/svg"><title>Group 3</title><path d="M145.585 18.698c1.917-1.795 7.748-7.259 4.396-13.716-1.174-2.263-3.112-3.955-5.312-4.64a7.37 7.37 0 0 0-5.724.545c-6.797 3.644-12.504 10.861-17.537 17.229l-1.53 1.929c-7.068 8.866-13.294 17.108-19.033 25.2-.853 1.204-1.707 2.415-2.564 3.632-5.971 8.48-12.147 17.249-19.342 24.644-1.847 1.902-3.594 2.883-4.043 2.716-.068-.114-.126-.376-.016-.987.463-2.558 1.846-5.025 3.184-7.412.326-.579.647-1.154.953-1.722 1.12-2.083 2.31-4.178 3.463-6.203 1.814-3.193 3.69-6.495 5.354-9.862.9-1.82 1.847-3.621 2.795-5.424 3.43-6.526 6.979-13.272 8.226-20.952.62-3.829-.31-7.599-2.489-10.086-2.925-3.342-7.093-3.76-12.386-1.245-2.693 1.281-5.329 3.001-7.838 5.114-7.037 5.936-13.378 12.883-19.51 19.6-2.185 2.394-4.444 4.87-6.692 7.25C40.33 54.49 30.864 64.156 20.373 74.83c-1.268 1.29-2.555 1.564-3.127 1.167-.498-.346-.66-1.455.105-3.154 4.538-10.072 10.796-20.075 19.132-30.58 2.725-3.435 5.565-6.38 8.57-9.5.824-.854 1.658-1.72 2.5-2.605.454-.48.92-.958 1.39-1.44 3.323-3.413 6.76-6.942 7.762-11.927.907-4.52-1.909-9.335-6.28-10.736-5.61-1.796-9.914 3.579-11.75 5.875C27.73 25.63 13.9 44.042 4.044 64.962 2.481 68.28.948 71.876.296 75.7-.737 81.742.83 89.62 6.659 93.6c.251.17.509.335.769.491C9.542 95.364 11.765 96 14.045 96c2.595-.001 5.263-.824 7.919-2.468 8.029-4.97 12.829-10.444 18.387-16.783a339.868 339.868 0 0 1 4.511-5.073c3.572-3.912 6.697-7.487 9.718-10.943 6.038-6.908 11.742-13.435 19.494-20.843l.097-.092c-.148.826-.64 2.486-2.144 5.68l-.11.23c-1.465 3.201-3.165 6.372-4.809 9.437-4.323 8.055-8.792 16.384-9.518 26.179-.387 5.182 1.459 9.669 5.063 12.312 3.598 2.638 8.385 3.024 13.141 1.062 12.243-5.05 20.298-16.043 28.088-26.673a423.519 423.519 0 0 1 4.044-5.456c10.644-14.052 23.212-30.191 37.66-43.87m99.061 40.777c-2.909-.526-6.057.809-8.43 3.57-4.794 5.573-14.45 14.96-25.279 15.213-4.351.108-8.394-2.006-10.302-5.368-1.41-2.481-1.55-5.763-.337-7.98 1.27-2.326 3.62-2.376 6.109-2.429a35.27 35.27 0 0 0 1.562-.054c15.608-.967 31.301-8.679 41.978-20.629 4.93-5.49 18.02-20.075 11.052-31.806-3.472-5.837-10.318-8.178-18.79-6.423-19.718 4.09-33.629 20.589-45.122 35.734l-1.437 1.898c-12.102 15.988-25.817 34.109-46.226 36.96-.62.085-1.242.156-1.87.205-3.71.293-7.627-1.047-9.974-3.416-1.752-1.77-2.569-4.026-2.36-6.526.34-4.087 3.758-6.167 10.45-6.36 5.334-.153 9.73-.954 14.25-2.594 6.81-2.47 13.545-6.556 20.019-12.14 7.297-6.295 15.126-14.256 17.868-25.57 1.309-5.394.443-10.263-2.437-13.707-2.925-3.498-7.626-5.217-13.272-4.85-2.314.154-4.84.688-7.95 1.685-5.358 1.714-10.286 4.642-14.873 7.495-10.035 6.237-18.886 14.501-25.597 23.899-6.303 8.824-16.17 25.937-11.435 41.398 2.11 6.891 7.4 12.396 14.15 14.726 3.089 1.067 6.368 1.593 9.748 1.593 7.494-.001 15.479-2.58 22.956-7.556 2.977-1.98 5.844-4.24 8.618-6.425a407.486 407.486 0 0 1 3.124-2.445c.06-.038.115-.084.247-.19.106-.08.21-.166.3-.248a6.61 6.61 0 0 0 .733-.7 63.064 63.064 0 0 0 3.053-2.423c2.46 8.938 6.942 14.696 13.682 17.589 14.647 6.278 31.636-1.52 42.651-10.91 3.98-3.395 6.574-6.539 8.165-9.895 1.061-2.237 1.198-4.349.422-6.454-.98-2.645-2.965-4.419-5.446-4.867zm-20.275-28.963v-.001c5.53-4.531 11.795-7.664 19.5-10.974l.374-.169c1.081-.503 1.504-.583 1.882-.085.103.182.015.982-.281 1.554-7.362 14.17-24.288 24.765-34.214 24.765l-.186-.001c3.195-6.561 8.088-11.129 12.925-15.089zm-66.064 1.778c6.412-5.786 14.3-9.37 21.26-12.534l.295-.137c.942-.447 1.556-.683 2.095-.174.28.264.137.679-.282 1.493-6.009 11.684-22.15 24.808-34.475 24.92 2.605-5.277 6.34-9.268 11.107-13.568z" fill="#5789FF" fill-rule="evenodd"/></svg>